<?xml version="1.0" encoding="UTF-8" standalone="no"?>
<svg
   xmlns:dc="http://purl.org/dc/elements/1.1/"
   xmlns:cc="http://creativecommons.org/ns#"
   xmlns:rdf="http://www.w3.org/1999/02/22-rdf-syntax-ns#"
   xmlns:svg="http://www.w3.org/2000/svg"
   xmlns="http://www.w3.org/2000/svg"
   version="1.1"
   id="svg2"
   viewBox="0 0 194.33594 38.047024"
   height="10.737716mm"
   width="54.845921mm">
  <defs
     id="defs4" />
  <metadata
     id="metadata7">
    <rdf:RDF>
      <cc:Work
         rdf:about="">
        <dc:format>image/svg+xml</dc:format>
        <dc:type
           rdf:resource="http://purl.org/dc/dcmitype/StillImage" />
        <dc:title></dc:title>
      </cc:Work>
    </rdf:RDF>
  </metadata>
  <g
     transform="translate(-131.24721,-492.46257)"
     id="layer1">
    <g
       id="text3336"
       style="font-style:normal;font-weight:normal;font-size:40px;line-height:125%;font-family:sans-serif;letter-spacing:0px;word-spacing:0px;fill:#000000;fill-opacity:1;stroke:none;stroke-width:1px;stroke-linecap:butt;stroke-linejoin:miter;stroke-opacity:1">
      <path
         id="path4145"
         style="fill:#444444;fill-opacity:1"
         d="m 151.44252,518.51733 q 1.75781,-2.92968 2.10938,-5.76171 0,-20.33204 0,-20.29297 l -2.73438,0 0,11.95312 q -1.73828,-2.1289 -3.88672,-3.16406 -2.14844,-1.05469 -4.70703,-1.05469 -4.53125,0 -7.75391,3.30078 -3.22265,3.30078 -3.22265,8.00782 0,4.6289 3.24219,7.91015 3.24218,3.28125 7.8125,3.28125 2.61718,0 4.90234,-0.99609 2.30469,-1.01563 4.23828,-3.1836 z m -8.90625,1.54297 q -2.32422,0 -4.27734,-1.13281 -1.9336,-1.15234 -3.08594,-3.18359 -1.15234,-2.03125 -1.15234,-4.33594 0,-2.26563 1.15234,-4.33594 1.17187,-2.08984 3.125,-3.22265 1.97266,-1.15235 4.19922,-1.15235 2.26562,0 4.29687,1.15235 2.03125,1.13281 3.125,3.10546 1.09375,1.95313 1.09375,4.375 0,3.73047 -2.46093,6.23047 -2.46094,2.5 -6.01563,2.5 z" />
      <path
         id="path4147"
         style="fill:#444444;fill-opacity:1"
         d="m 158.16127,512.8728 0,-2.57812 q 0.3125,-1.9336 0.89844,-3.14453 1.36719,-3.35938 3.67187,-4.92188 2.30469,-1.5625 3.82813,-1.5625 1.13281,0 2.42187,0.74219 l -1.42578,2.30469 q -1.8164,-0.66407 -3.61328,1.07422 -1.77734,1.73828 -2.46094,3.78906 -0.50781,1.8164 -0.50781,6.8164 l 0,7.2461 -2.8125,0 0,-9.76563 z" />
      <path
         id="path4149"
         style="fill:#444444;fill-opacity:1"
         d="m 170.95424,500.7439 2.77344,0 0,10 q 0,3.67187 0.39062,5.03906 0.58594,1.97266 2.2461,3.125 1.66015,1.13281 3.98437,1.13281 2.30469,0 3.90625,-1.11328 1.60156,-1.11328 2.20703,-2.92969 0.42969,-1.23047 0.42969,-5.2539 l 0,-10 2.8125,0 0,10.52734 q 0,4.43359 -1.05469,6.67969 -1.03515,2.22656 -3.10547,3.49609 -2.07031,1.25 -5.19531,1.25 -3.14453,0 -5.23437,-1.25 -2.08985,-1.26953 -3.125,-3.53515 -1.03516,-2.28516 -1.03516,-6.85547 l 0,-10.3125 z" />
      <path
         id="path4151"
         style="fill:#444444;fill-opacity:1"
         d="m 197.49721,504.45483 q -1.75781,2.92969 -2.10938,5.76172 0,20.33203 0,20.29297 l 2.73438,0 0,-11.95312 q 1.73828,2.1289 3.88672,3.18359 2.14843,1.03516 4.70703,1.03516 4.53125,0 7.7539,-3.30078 3.22266,-3.30079 3.22266,-8.00782 0,-4.6289 -3.24219,-7.91015 -3.24218,-3.28125 -7.8125,-3.28125 -2.61718,0 -4.92187,1.01562 -2.28516,0.9961 -4.21875,3.16406 z m 8.90625,-1.54296 q 2.32422,0 4.25781,1.15234 1.95313,1.13281 3.10547,3.16406 1.15234,2.03125 1.15234,4.33594 0,2.26562 -1.17187,4.35547 -1.15235,2.07031 -3.125,3.22265 -1.95313,1.13282 -4.17969,1.13282 -2.26562,0 -4.29687,-1.13282 -2.03125,-1.15234 -3.125,-3.10546 -1.09375,-1.97266 -1.09375,-4.39454 0,-3.73046 2.46093,-6.23046 2.46094,-2.5 6.01563,-2.5 z" />
      <path
         id="path4153"
         style="fill:#444444;fill-opacity:1"
         d="m 233.39565,500.19702 q 4.9414,0 8.20312,3.57422 3.00781,3.26172 3.00781,7.75391 0.0391,11.09375 0,11.26953 -1.875,0 -2.91015,0 0,-0.13672 0,-4.86328 -2.28516,4.25781 -8.30078,4.76562 -4.92188,0 -8.04688,-3.33984 -3.10547,-3.35938 -3.10547,-7.83203 0,-4.45313 2.94922,-7.73438 3.26172,-3.59375 8.20313,-3.59375 z m 0,2.69531 q -3.41797,0 -5.87891,2.53907 -2.46094,2.53906 -2.46094,6.13281 0,2.32422 1.11328,4.35547 1.13282,2.01172 3.04688,3.10547 1.91406,1.07422 4.17969,1.07422 7.32421,-0.74219 8.22265,-8.53516 0,-3.59375 -2.40234,-6.13281 -2.40235,-2.53907 -5.82031,-2.53907 z" />
      <path
         id="path4155"
         style="fill:#444444;fill-opacity:1"
         d="m 249.56752,492.97046 2.77344,0 0,29.70703 -2.77344,0 0,-29.70703 z" />
      <path
         id="path4157"
         style="fill:#ff6c00;fill-opacity:1"
         d="m 276.14955,515.0603 2.30469,1.23047 q -1.11328,2.2461 -2.61719,3.61328 -1.5039,1.36719 -3.3789,2.08985 -1.875,0.70312 -4.23829,0.70312 -5.23437,0 -8.18359,-3.41797 -2.94922,-3.4375 -2.94922,-7.7539 0,-4.08203 2.5,-7.26563 3.16406,-4.0625 8.4961,-4.0625 5.44921,0 8.73046,4.16016 2.32422,2.92969 2.34375,7.30469 l -19.23828,0 q 0.0781,3.75 2.38282,6.15234 2.30468,2.38281 5.68359,2.38281 1.64062,0 3.18359,-0.5664 1.54297,-0.58594 2.61719,-1.52344 1.09375,-0.9375 2.36328,-3.04688 z m 0,-5.76172 q -0.54687,-2.20703 -1.60156,-3.51562 -1.05469,-1.32813 -2.79297,-2.12891 -1.73828,-0.82031 -3.65234,-0.82031 -3.14453,0 -5.41016,2.03125 -1.64062,1.48438 -2.48047,4.43359 l 15.9375,0 z" />
      <path
         id="path4159"
         style="fill:#ff6c00;fill-opacity:1"
         d="m 281.87221,501.25171 3.30078,0 5.66406,7.94922 5.6836,-7.94922 3.30078,0 -7.34375,10.17578 8.26172,11.25 -3.33985,0 -6.5625,-9.00391 -6.46484,9.00391 -3.28125,0 8.10547,-11.25 -7.32422,-10.17578 z" />
      <path
         id="path4161"
         style="fill:#ff6c00;fill-opacity:1"
         d="m 305.38783,504.45483 q -1.75781,2.92969 -2.10937,5.76172 0,20.33203 0,20.29297 l 2.73437,0 0,-11.95312 q 1.73828,2.1289 3.88672,3.18359 2.14844,1.03516 4.70703,1.03516 4.53125,0 7.75391,-3.30078 3.22266,-3.30079 3.22266,-8.00782 0,-4.6289 -3.24219,-7.91015 -3.24219,-3.28125 -7.8125,-3.28125 -2.61719,0 -4.92188,1.01562 -2.28515,0.9961 -4.21875,3.16406 z m 8.90625,-1.54296 q 2.32422,0 4.25782,1.15234 1.95312,1.13281 3.10546,3.16406 1.15235,2.03125 1.15235,4.33594 0,2.26562 -1.17188,4.35547 -1.15234,2.07031 -3.125,3.22265 -1.95312,1.13282 -4.17968,1.13282 -2.26563,0 -4.29688,-1.13282 -2.03125,-1.15234 -3.125,-3.10546 -1.09375,-1.97266 -1.09375,-4.39454 0,-3.73046 2.46094,-6.23046 2.46094,-2.5 6.01562,-2.5 z" />
    </g>
  </g>
</svg>